<svg xmlns="http://www.w3.org/2000/svg" viewBox="0 0 600 500" width="600" height="500" role="img" aria-label="Skill Radar" font-family="ui-sans-serif, -apple-system, 'Segoe UI', Helvetica, Arial, sans-serif">
<rect x="0.5" y="0.5" width="599" height="499" rx="12" fill="#ffffff" stroke="#d0d7de"/>
<text x="300.0" y="34" text-anchor="middle" font-size="16" font-weight="700" fill="#7c3aed">Skill Radar</text>
<g transform="translate(300.0,262)">
<polygon points="0.0,-160.0 125.1,-99.8 156.0,35.6 69.4,144.2 -69.4,144.2 -156.0,35.6 -125.1,-99.8" fill="none" stroke="#d0d7de" opacity="0.90"/><polygon points="0.0,-120.0 93.8,-74.8 117.0,26.7 52.1,108.1 -52.1,108.1 -117.0,26.7 -93.8,-74.8" fill="none" stroke="#d0d7de" opacity="0.78"/><polygon points="0.0,-80.0 62.5,-49.9 78.0,17.8 34.7,72.1 -34.7,72.1 -78.0,17.8 -62.5,-49.9" fill="none" stroke="#d0d7de" opacity="0.65"/><polygon points="0.0,-40.0 31.3,-24.9 39.0,8.9 17.4,36.0 -17.4,36.0 -39.0,8.9 -31.3,-24.9" fill="none" stroke="#d0d7de" opacity="0.53"/><line x1="0" y1="0" x2="0.0" y2="-160.0" stroke="#d0d7de" opacity="0.6"/><line x1="0" y1="0" x2="125.1" y2="-99.8" stroke="#d0d7de" opacity="0.6"/><line x1="0" y1="0" x2="156.0" y2="35.6" stroke="#d0d7de" opacity="0.6"/><line x1="0" y1="0" x2="69.4" y2="144.2" stroke="#d0d7de" opacity="0.6"/><line x1="0" y1="0" x2="-69.4" y2="144.2" stroke="#d0d7de" opacity="0.6"/><line x1="0" y1="0" x2="-156.0" y2="35.6" stroke="#d0d7de" opacity="0.6"/><line x1="0" y1="0" x2="-125.1" y2="-99.8" stroke="#d0d7de" opacity="0.6"/>
<g><animateTransform attributeName="transform" type="scale" values="0.04;1" dur="1.1s" calcMode="spline" keyTimes="0;1" keySplines="0.22 1 0.36 1" fill="freeze"/>
<polygon points="0.0,-124.8 90.1,-71.8 109.2,24.9 38.2,79.3 -40.3,83.6 -127.9,29.2 -118.8,-94.8" fill="#7c3aed" fill-opacity="0.25" stroke="#db2777" stroke-width="2.5" stroke-linejoin="round"/><circle cx="0.0" cy="-124.8" r="4" fill="#db2777" stroke="#ffffff" stroke-width="1.5"/><circle cx="90.1" cy="-71.8" r="4" fill="#db2777" stroke="#ffffff" stroke-width="1.5"/><circle cx="109.2" cy="24.9" r="4" fill="#db2777" stroke="#ffffff" stroke-width="1.5"/><circle cx="38.2" cy="79.3" r="4" fill="#db2777" stroke="#ffffff" stroke-width="1.5"/><circle cx="-40.3" cy="83.6" r="4" fill="#db2777" stroke="#ffffff" stroke-width="1.5"/><circle cx="-127.9" cy="29.2" r="4" fill="#db2777" stroke="#ffffff" stroke-width="1.5"/><circle cx="-118.8" cy="-94.8" r="4" fill="#db2777" stroke="#ffffff" stroke-width="1.5"/>
</g>
<text x="0.0" y="-192.0" text-anchor="middle" font-size="13" font-weight="600" fill="#1f2328">Frontend</text><text x="0.0" y="-176.0" text-anchor="middle" font-size="11.5" fill="#656d76">78</text><text x="145.4" y="-112.0" text-anchor="start" font-size="13" font-weight="600" fill="#1f2328">Backend</text><text x="145.4" y="-96.0" text-anchor="start" font-size="11.5" fill="#656d76">72</text><text x="181.3" y="45.4" text-anchor="start" font-size="13" font-weight="600" fill="#1f2328">Databases</text><text x="181.3" y="61.4" text-anchor="start" font-size="11.5" fill="#656d76">70</text><text x="80.7" y="181.6" text-anchor="start" font-size="13" font-weight="600" fill="#1f2328">Cybersecurity</text><text x="80.7" y="197.6" text-anchor="start" font-size="11.5" fill="#656d76">55</text><text x="-80.7" y="181.6" text-anchor="end" font-size="13" font-weight="600" fill="#1f2328">Linux / DevOps</text><text x="-80.7" y="197.6" text-anchor="end" font-size="11.5" fill="#656d76">58</text><text x="-181.3" y="45.4" text-anchor="end" font-size="13" font-weight="600" fill="#1f2328">Problem Solving</text><text x="-181.3" y="61.4" text-anchor="end" font-size="11.5" fill="#656d76">82</text><text x="-145.4" y="-112.0" text-anchor="end" font-size="13" font-weight="600" fill="#1f2328">Self-Learning</text><text x="-145.4" y="-96.0" text-anchor="end" font-size="11.5" fill="#656d76">95</text>
</g>
</svg>
